<?xml version="1.0" encoding="utf-8"?>
<!-- Svg Vector Icons : http://www.onlinewebfonts.com/icon -->
<!DOCTYPE svg PUBLIC "-//W3C//DTD SVG 1.1//EN" "http://www.w3.org/Graphics/SVG/1.1/DTD/svg11.dtd">
<svg version="1.1" xmlns="http://www.w3.org/2000/svg" xmlns:xlink="http://www.w3.org/1999/xlink" x="0px" y="0px" fill="#ffffff" viewBox="0 0 1000 1000" enable-background="new 0 0 1000 1000" xml:space="preserve">
<metadata> Svg Vector Icons : http://www.onlinewebfonts.com/icon </metadata>
<g><g><g><path d="M42.9,720.1L24.6,687C1,835.2,9.4,957.4,26,974c16.6,16.6,138.8,24.9,287,1.4c-10.7-5.9-21.7-12-33-18.4C195.8,910.3,89.7,804.2,42.9,720.1z"/><path d="M567.7,93.7l-45.8-30.6c-107.2,33.9-213.3,86.5-292.7,166C149.7,308.6,97,414.6,63.2,521.9c9.8,14.7,20,30,30.5,45.8c74.8,112.1,226.4,263.8,338.6,338.6l45.8,30.5c107.2-33.9,213.2-86.5,292.7-166c79.5-79.5,132.1-185.5,166-292.7c-9.9-14.8-20-30.1-30.5-45.8C831.5,320.1,679.9,168.5,567.7,93.7z M693.2,422.4c-6.6,6.6-15.3,9.9-23.9,9.9c-8.7,0-17.3-3.3-23.9-9.9l-9.9-9.9l-19.8,19.8l9.9,9.9c13.2,13.2,13.2,34.6,0,47.9c-6.6,6.6-15.3,9.9-23.9,9.9s-17.3-3.3-23.9-9.9l-9.9-9.9L547.9,500l9.9,9.9c13.2,13.2,13.2,34.6,0,47.9c-6.6,6.6-15.3,9.9-23.9,9.9c-8.7,0-17.3-3.3-23.9-9.9l-9.9-9.9l-19.8,19.8l9.9,9.9c13.2,13.2,13.2,34.6,0,47.9c-6.6,6.6-15.3,9.9-23.9,9.9c-8.7,0-17.3-3.3-23.9-9.9l-9.9-9.9l-19.8,19.8l9.9,9.9c13.2,13.2,13.2,34.6,0,47.9c-6.6,6.6-15.3,9.9-23.9,9.9c-8.7,0-17.3-3.3-23.9-9.9l-67.7-67.7c-13.2-13.2-13.2-34.6,0-47.9c13.2-13.2,34.6-13.2,47.9,0l9.9,9.9l19.8-19.8l-9.9-9.9c-13.2-13.2-13.2-34.6,0-47.9c13.2-13.2,34.6-13.2,47.9,0l9.9,9.9l19.8-19.8l-9.9-9.9c-13.2-13.2-13.2-34.6,0-47.9c13.2-13.2,34.6-13.2,47.9,0l9.9,9.9l19.8-19.8l-9.9-9.9c-13.2-13.2-13.2-34.6,0-47.9c13.2-13.2,34.6-13.2,47.9,0l9.9,9.9l19.8-19.8l-9.9-9.9c-13.2-13.2-13.2-34.6,0-47.9c13.2-13.2,34.6-13.2,47.9,0l67.7,67.7C706.5,387.7,706.5,409.1,693.2,422.4z"/><path d="M974,26C957.4,9.4,835.2,1,687,24.6c10.7,5.9,21.7,12,33.1,18.4c84.1,46.8,190.3,152.9,237,237l18.4,33C999,164.8,990.6,42.6,974,26z"/></g></g><g></g><g></g><g></g><g></g><g></g><g></g><g></g><g></g><g></g><g></g><g></g><g></g><g></g><g></g><g></g></g>
</svg>